<?xml version="1.0" standalone="no"?>
<!DOCTYPE svg PUBLIC "-//W3C//DTD SVG 20010904//EN"
 "http://www.w3.org/TR/2001/REC-SVG-20010904/DTD/svg10.dtd">
<svg version="1.0" xmlns="http://www.w3.org/2000/svg"
 width="658.000000pt" height="379.000000pt" viewBox="0 0 658.000000 379.000000"
 preserveAspectRatio="xMidYMid meet">

<g transform="translate(0.000000,379.000000) scale(0.100000,-0.100000)"
fill="#000000" stroke="none">
<path d="M1780 2253 l0 -106 -21 19 c-16 15 -35 19 -81 18 -50 -1 -63 -5 -88
-29 -42 -40 -65 -107 -64 -186 0 -88 36 -152 101 -181 54 -24 90 -18 132 21
33 31 41 30 41 -6 0 -21 5 -23 45 -23 l45 0 0 290 0 290 -55 0 -55 0 0 -107z
m-47 -145 c39 -20 46 -40 47 -122 0 -68 -3 -83 -22 -103 -29 -31 -72 -30 -103
2 -22 21 -25 33 -25 92 1 74 14 109 51 129 30 16 26 16 52 2z"/>
<path d="M2460 2070 l0 -290 45 0 c44 0 45 1 45 32 l0 32 28 -27 c39 -38 80
-48 126 -32 79 28 118 93 119 199 0 78 -23 146 -62 180 -33 30 -133 27 -166
-4 l-25 -23 0 111 0 112 -55 0 -55 0 0 -290z m216 32 c33 -26 44 -55 44 -116
0 -71 -12 -102 -50 -121 -24 -13 -35 -13 -53 -4 -39 21 -46 41 -47 126 0 79 1
82 31 107 36 30 47 32 75 8z"/>
<path d="M2125 2338 c-2 -7 -22 -67 -44 -133 -23 -65 -41 -128 -41 -140 -1
-11 -22 -85 -49 -165 l-48 -145 30 -3 c34 -4 44 7 53 58 3 19 41 144 85 278
43 133 79 247 79 252 0 15 -60 12 -65 -2z"/>
<path d="M6157 2343 c-2 -5 -15 -44 -27 -88 -21 -77 -90 -298 -136 -437 l-22
-68 33 0 33 0 36 108 c20 59 36 114 36 124 0 9 25 91 55 182 30 91 55 170 55
176 0 11 -57 14 -63 3z"/>
<path d="M2260 2055 l0 -275 50 0 50 0 0 275 0 275 -50 0 -50 0 0 -275z"/>
<path d="M4175 2266 c-36 -10 -40 -15 -43 -49 -3 -32 -7 -37 -28 -37 -21 0
-24 -5 -24 -35 0 -30 3 -35 24 -35 23 0 24 -1 28 -128 3 -102 7 -135 22 -156
23 -36 77 -59 122 -50 32 6 34 9 34 45 0 36 -2 39 -28 39 -47 0 -52 14 -52
137 l0 113 45 0 c45 0 45 0 45 35 0 35 0 35 -45 35 l-45 0 0 50 c0 28 -3 50
-7 49 -5 0 -26 -6 -48 -13z"/>
<path d="M152 2171 c3 -31 9 -34 148 -97 80 -36 149 -69 153 -73 7 -7 -148
-81 -217 -103 -84 -26 -86 -28 -86 -69 l0 -38 88 43 c48 23 103 48 122 55 19
7 65 27 102 44 63 30 67 34 68 65 0 33 -1 34 -147 104 -81 39 -159 74 -173 78
-14 4 -33 11 -43 15 -16 7 -18 3 -15 -24z"/>
<path d="M1321 2180 c-50 -12 -83 -40 -111 -96 -46 -91 -25 -217 45 -272 27
-22 121 -46 146 -38 8 2 25 7 40 10 22 5 25 9 21 42 -4 35 -5 36 -40 31 -42
-7 -93 12 -116 44 -23 33 -21 125 3 165 21 35 68 55 115 51 26 -2 31 2 36 30
7 29 5 32 -23 37 -37 7 -72 6 -116 -4z"/>
<path d="M3066 2180 c-16 -5 -39 -19 -52 -31 l-24 -22 0 26 c0 25 -3 27 -40
27 l-40 0 0 -195 0 -195 50 0 50 0 0 138 c0 125 2 140 20 160 28 30 83 30 104
0 13 -18 16 -52 16 -160 l0 -138 56 0 56 0 -4 153 c-4 153 -13 194 -50 225
-19 15 -107 23 -142 12z"/>
<path d="M3870 2182 c-56 -16 -90 -58 -90 -113 0 -47 34 -89 95 -118 52 -24
76 -61 55 -86 -14 -17 -75 -20 -115 -5 -28 11 -33 6 -37 -40 -3 -23 2 -26 53
-38 168 -40 275 114 147 212 -19 14 -39 26 -44 26 -18 1 -54 39 -54 58 0 31
25 44 76 40 45 -3 48 -2 55 26 5 17 7 31 6 32 -7 7 -126 12 -147 6z"/>
<path d="M4453 2181 c-53 -9 -56 -12 -48 -51 5 -24 11 -30 23 -25 10 4 35 12
56 17 33 7 44 6 65 -10 29 -22 39 -61 19 -73 -7 -5 -26 -9 -43 -9 -42 -1 -108
-32 -133 -65 -26 -32 -29 -92 -8 -133 30 -58 117 -74 176 -32 l31 22 6 -21 c4
-17 13 -21 50 -21 l45 0 -4 153 c-4 157 -12 191 -54 229 -22 20 -120 30 -181
19z m137 -245 c0 -64 -70 -112 -108 -74 -38 38 10 108 74 108 32 0 34 -2 34
-34z"/>
<path d="M4885 2183 c-33 -8 -74 -53 -92 -102 -36 -94 -15 -209 51 -270 35
-33 103 -35 145 -3 l31 23 0 -46 c0 -79 -62 -119 -148 -96 -25 6 -46 10 -47 9
-2 -2 -6 -18 -10 -35 -6 -30 -4 -34 22 -44 46 -18 177 -8 209 17 72 53 84 107
84 367 l0 177 -45 0 c-38 0 -45 -3 -45 -20 0 -25 -7 -25 -28 0 -18 21 -88 34
-127 23z m110 -88 c23 -22 25 -32 25 -106 0 -71 -3 -86 -22 -106 -31 -33 -70
-30 -102 8 -47 56 -30 196 27 219 35 14 46 12 72 -15z"/>
<path d="M5386 2180 c-16 -5 -39 -19 -52 -31 l-24 -22 0 26 c0 25 -3 27 -45
27 l-45 0 0 -195 0 -195 55 0 55 0 0 138 c0 125 2 140 20 160 28 30 83 30 104
0 13 -18 16 -52 16 -160 l0 -138 51 0 51 0 -4 153 c-4 154 -13 194 -51 225
-19 16 -96 23 -131 12z"/>
<path d="M3350 2048 c0 -144 10 -200 43 -236 42 -45 134 -47 181 -3 24 23 36
19 36 -11 0 -14 8 -18 40 -18 l40 0 0 200 0 200 -50 0 -50 0 0 -144 c0 -138
-1 -146 -22 -160 -33 -23 -74 -20 -92 6 -13 18 -16 52 -16 160 l0 138 -55 0
-55 0 0 -132z"/>
<path d="M5650 2140 l0 -39 85 -3 84 -3 -62 -91 c-34 -50 -74 -105 -89 -123
-19 -22 -28 -44 -28 -67 l0 -34 155 0 155 0 0 45 0 45 -91 0 -90 0 85 124 c62
90 86 133 86 155 l0 31 -145 0 -145 0 0 -40z"/>
<path d="M590 1705 c0 -13 29 -15 205 -15 176 0 205 2 205 15 0 13 -29 15
-205 15 -176 0 -205 -2 -205 -15z"/>
</g>
</svg>
